<mxfile host="app.diagrams.net" agent="Mozilla/5.0 (Macintosh; Intel Mac OS X 10_15_7) AppleWebKit/537.36 (KHTML, like Gecko) Chrome/126.0.0.0 Safari/537.36" version="24.7.6">
  <diagram name="Page-1" id="VHIbZxRYXG4Qx5-EUeNO">
    <mxGraphModel dx="1393" dy="866" grid="1" gridSize="10" guides="1" tooltips="1" connect="1" arrows="1" fold="1" page="1" pageScale="1" pageWidth="827" pageHeight="1169" math="0" shadow="0">
      <root>
        <mxCell id="0" />
        <mxCell id="1" parent="0" />
        <mxCell id="yqEKLwhEaHwLjNB2zPde-11" style="edgeStyle=orthogonalEdgeStyle;rounded=0;orthogonalLoop=1;jettySize=auto;html=1;entryX=0;entryY=0.5;entryDx=0;entryDy=0;" edge="1" parent="1" source="yqEKLwhEaHwLjNB2zPde-3" target="yqEKLwhEaHwLjNB2zPde-4">
          <mxGeometry relative="1" as="geometry" />
        </mxCell>
        <mxCell id="yqEKLwhEaHwLjNB2zPde-12" style="edgeStyle=orthogonalEdgeStyle;rounded=0;orthogonalLoop=1;jettySize=auto;html=1;entryX=0;entryY=0.75;entryDx=0;entryDy=0;" edge="1" parent="1" source="yqEKLwhEaHwLjNB2zPde-3" target="yqEKLwhEaHwLjNB2zPde-5">
          <mxGeometry relative="1" as="geometry" />
        </mxCell>
        <mxCell id="yqEKLwhEaHwLjNB2zPde-3" value="Gateway" style="rounded=0;whiteSpace=wrap;html=1;" vertex="1" parent="1">
          <mxGeometry x="170" y="220" width="80" height="250" as="geometry" />
        </mxCell>
        <mxCell id="yqEKLwhEaHwLjNB2zPde-4" value="Auth Service" style="rounded=1;whiteSpace=wrap;html=1;" vertex="1" parent="1">
          <mxGeometry x="370" y="170" width="120" height="60" as="geometry" />
        </mxCell>
        <mxCell id="yqEKLwhEaHwLjNB2zPde-5" value="Task Service" style="rounded=1;whiteSpace=wrap;html=1;" vertex="1" parent="1">
          <mxGeometry x="370" y="300" width="120" height="60" as="geometry" />
        </mxCell>
        <mxCell id="yqEKLwhEaHwLjNB2zPde-6" value="Notification Service" style="rounded=1;whiteSpace=wrap;html=1;" vertex="1" parent="1">
          <mxGeometry x="370" y="450" width="120" height="60" as="geometry" />
        </mxCell>
        <mxCell id="yqEKLwhEaHwLjNB2zPde-7" value="Postgres DB" style="shape=cylinder3;whiteSpace=wrap;html=1;boundedLbl=1;backgroundOutline=1;size=15;" vertex="1" parent="1">
          <mxGeometry x="630" y="180" width="60" height="80" as="geometry" />
        </mxCell>
        <mxCell id="yqEKLwhEaHwLjNB2zPde-16" style="edgeStyle=orthogonalEdgeStyle;rounded=0;orthogonalLoop=1;jettySize=auto;html=1;entryX=1;entryY=0.5;entryDx=0;entryDy=0;" edge="1" parent="1" source="yqEKLwhEaHwLjNB2zPde-8" target="yqEKLwhEaHwLjNB2zPde-6">
          <mxGeometry relative="1" as="geometry" />
        </mxCell>
        <mxCell id="yqEKLwhEaHwLjNB2zPde-8" value="RabbitMQ (Message Broker)" style="shape=process;whiteSpace=wrap;html=1;backgroundOutline=1;" vertex="1" parent="1">
          <mxGeometry x="600" y="380" width="120" height="60" as="geometry" />
        </mxCell>
        <mxCell id="yqEKLwhEaHwLjNB2zPde-10" style="edgeStyle=orthogonalEdgeStyle;rounded=0;orthogonalLoop=1;jettySize=auto;html=1;entryX=0;entryY=0.5;entryDx=0;entryDy=0;" edge="1" parent="1" source="yqEKLwhEaHwLjNB2zPde-9" target="yqEKLwhEaHwLjNB2zPde-3">
          <mxGeometry relative="1" as="geometry" />
        </mxCell>
        <mxCell id="yqEKLwhEaHwLjNB2zPde-9" value="User" style="shape=umlActor;verticalLabelPosition=bottom;verticalAlign=top;html=1;outlineConnect=0;" vertex="1" parent="1">
          <mxGeometry x="30" y="315" width="30" height="60" as="geometry" />
        </mxCell>
        <mxCell id="yqEKLwhEaHwLjNB2zPde-15" style="edgeStyle=orthogonalEdgeStyle;rounded=0;orthogonalLoop=1;jettySize=auto;html=1;entryX=0.408;entryY=0;entryDx=0;entryDy=0;entryPerimeter=0;" edge="1" parent="1" source="yqEKLwhEaHwLjNB2zPde-5" target="yqEKLwhEaHwLjNB2zPde-8">
          <mxGeometry relative="1" as="geometry" />
        </mxCell>
        <mxCell id="yqEKLwhEaHwLjNB2zPde-17" style="edgeStyle=orthogonalEdgeStyle;rounded=0;orthogonalLoop=1;jettySize=auto;html=1;entryX=0;entryY=0.5;entryDx=0;entryDy=0;entryPerimeter=0;" edge="1" parent="1" source="yqEKLwhEaHwLjNB2zPde-4" target="yqEKLwhEaHwLjNB2zPde-7">
          <mxGeometry relative="1" as="geometry" />
        </mxCell>
        <mxCell id="yqEKLwhEaHwLjNB2zPde-18" style="edgeStyle=orthogonalEdgeStyle;rounded=0;orthogonalLoop=1;jettySize=auto;html=1;entryX=0;entryY=0.5;entryDx=0;entryDy=0;entryPerimeter=0;" edge="1" parent="1" source="yqEKLwhEaHwLjNB2zPde-5" target="yqEKLwhEaHwLjNB2zPde-7">
          <mxGeometry relative="1" as="geometry" />
        </mxCell>
      </root>
    </mxGraphModel>
  </diagram>
</mxfile>
